<svg viewBox="-564.7 -268.5 1039.4 584.5" width="1039.4" height="584.5" version="1.1" baseProfile="full" xmlns="http://www.w3.org/2000/svg" class="js-draw--autoresize"><style id="js-draw-style-sheet">path{stroke-linecap:round;stroke-linejoin:round;}text{white-space:pre;}</style><path d="M474.7,316l0-584.5l-1039.4,0l0,584.5l1039.4,0" fill="#ffffff" class="js-draw-image-background"></path><path d="M-461,-259q-3.8,2.2 -7,4q-9,5 -5,89q2,53 2,57q-1,19 -11,130q-3,30 -12,95q0,1 3,52q0,44 0,80q-1,36 -3,65" fill="none" stroke="#803380" stroke-width="3"></path><path d="M-472,-259q0,0 0-2q0-5 24-1q41.2-.6 75-4q10-1 320-1q40.2,2.3 73,5q11.9,1 41,1q1.9,0 -4,47q-8.3,66.2 -17,104q-4,61 -4,111q0,4 -12,82q-7,68 -11,124q-4,27 -7,49" fill="none" stroke="#803380" stroke-width="3"></path><path d="M-499,314q-5-2 -7-2q85-2 243-4q95-3 173-6q41-2 75-4q23-1 21-8q-1-3 2-47q2-13 3-23" fill="none" stroke="#803380" stroke-width="4"></path><path d="M-473,-128q0,0 0,2q0,2 45,2q68,4 124,8q46,4 230,0q65-1 97,1q14,1 32,1" fill="none" stroke="#803380" stroke-width="3"></path><path d="M-492,80q1,3 1,5q.3,1.7 33-1q35.3-2.9 177,0q100-3 181-7q17-1 87,0q17,0 30,1" fill="none" stroke="#803380" stroke-width="3"></path><path d="M-370,-253q-.6-1 -3-5q-1-1 -8,3q-5,3 7,6q10,3 -9,8q-2,1 -3,1" fill="none" stroke="#803380" stroke-width="3"></path><path d="M-359,-247q-5-2 -9-1q-1,0 -3,6q0,1 3,1" fill="none" stroke="#803380" stroke-width="3"></path><path d="M-352,-246q-1,0 -5,0q-1,0 1,4q3-1 6-3" fill="none" stroke="#803380" stroke-width="3"></path><path d="M-343,-246q.2,.2 1,1q.8,.8 4-4q1.2,1.8 2,5" fill="none" stroke="#803380" stroke-width="2.4"></path><path d="M-320,-251q-1-5 -3-6q-4-2 -4,27" fill="none" stroke="#803380" stroke-width="4"></path><path d="M-338,-240q3.9-1.1 7-2" fill="none" stroke="#803380" stroke-width="2.4"></path><path d="M-304,-252q-4-2 -6,1q-3,5 4,5" fill="none" stroke="#803380" stroke-width="3"></path><path d="M-291,-255q4,3 4,7" fill="none" stroke="#803380" stroke-width="2.6"></path><path d="M-418,-95q-1,4 -1,8q0,3 0,15" fill="none" stroke="#803380" stroke-width="4"></path><path d="M-418,-83q0-2 -2-12q-2-10 8,0q3,3 -4,10q2-3 5-7q2-3 8,6q1,1 2-7" fill="none" stroke="#803380" stroke-width="3"></path><path d="M-397,-94q2,5 2,8" fill="none" stroke="#803380" stroke-width="2.7"></path><path d="M-392,-103q0-1 0-2" fill="none" stroke="#803380" stroke-width="4"></path><path d="M-388,-94q-1,7 -1,10q0,1.8 7-6q3-3.4 3,3" fill="none" stroke="#803380" stroke-width="2.9"></path><path d="M-360,-98q-1-1 -3-7q-3,7 -4,19q1,10 3,19" fill="none" stroke="#803380" stroke-width="5"></path><path d="M-375,-83q1.6-.4 8-2" fill="none" stroke="#803380" stroke-width="2.6"></path><path d="M-342,-95q-1-1 -4-3q-3,3 -4,8q-1,2 7,10" fill="none" stroke="#803380" stroke-width="3"></path><path d="M-328,-98q4,3 7,6q0,5 -2,9" fill="none" stroke="#803380" stroke-width="3"></path><path d="M-381,-104q0,1 2,3q2,6 2,12q0,2 10,0" fill="none" stroke="#803380" stroke-width="4"></path><path d="M-379,-97q1,0 4-1" fill="none" stroke="#803380" stroke-width="2.6"></path><path d="M-449,112q0,1 0,2q0,1 3-1q2-1 4-9q2,3 3,9q0,2 7-7q2,4 3,10" fill="none" stroke="#803380" stroke-width="4"></path><path d="M-414,110q-5-3 -7-1q0,3 1,6q1,3 6-7q2,2 3,6" fill="none" stroke="#803380" stroke-width="3"></path><path d="M-406,109q.6,.2 3,1" fill="none" stroke="#803380" stroke-width="2.8"></path><path d="M-401,102q-1.1-1.1 -2-2" fill="none" stroke="#803380" stroke-width="2.7"></path><path d="M-396,105q0,3.3 0,6q0,2 6-8q1.8,2.9 3,8" fill="none" stroke="#803380" stroke-width="3"></path><path d="M-369,100q-1,0 -3,0q-8,0 0,12q1,1 6,2" fill="none" stroke="#803380" stroke-width="4"></path><path d="M-356,102q-1-3 -2-5q-1-2 3,12" fill="none" stroke="#803380" stroke-width="4"></path><path d="M-415,-193q-7.2,14.8 -7.5,35" fill="none" stroke="#cc6633" stroke-width="2.7"></path><path d="M-417,-196q-1.6-1.6 -1.3-1.4q3.6,3.2 32.6,.2q16.3-1.7 20.3-1q-2.1,.6 -6.2,1q-4.7,.5 -5.7,33.8q.5,5.4 1.1,9.7q-3.2,.3 -7.3-1q-23.4-2.9 -42.8-3.4q1.6,.3 4.5,.8q-.4-.3 -1.2-.7" fill="none" stroke="#cc6633" stroke-width="2.4"></path><path d="M-303,-201q-.1-1.7 .1-2.2q-.9,13.6 -5.1,38.2" fill="none" stroke="#cc6633" stroke-width="2.3"></path><path d="M-303,-198q-.6-3.3 8.9-4.8q51.8-8.5 60.1-12.5q-3,2.3 -8.9,6.1q-6.5,4.2 -6.3,48.7q1.1,4.8 2.5,8.6q-.6-1.5 -1.6-4.2q-.2-.5 -25.9-1.4q-22-1.8 -40-3.5q2.5-.1 7.2,0" fill="none" stroke="#cc6633" stroke-width="2.1"></path><path d="M-411,-175q-3.1-7.4 7.1-8.8q5.9-.7 1.6,9.8q-2.8,6.9 -14.2,9.1q3.1-1.1 8.9-2.8q7.6,.4 13.9,1.8" fill="none" stroke="#cc6633" stroke-width="2.2"></path><path d="M-274,-188q-11.7,5 -21.5,8.7q6.2,1.7 17.5,2.3" fill="none" stroke="#cc6633" stroke-width="2.1"></path><path d="M-275,-187q-1.4-2.9 -2.3-.1q-2.4,13.7 -3.7,25.1" fill="none" stroke="#cc6633" stroke-width="2.5"></path><path d="M-441,190q1.7-1.9 1.7-1.6q0,.2 -4.6,44.5" fill="none" stroke="#cc6633" stroke-width="2.5"></path><path d="M-436,188q25.6-4.6 63.5-10q15.7-1.9 28.5-3.3q-.7,1.2 -2.5,2.8q-3.5,3.3 -6.4,37.6q.4,2.5 1,4.5q.3,1.2 -39.6,3.8q-18.2,1.1 -39.9,7q-2,.3 -3.6,.6" fill="none" stroke="#cc6633" stroke-width="2.2"></path><path d="M-391,157q-1.3-11.9 -10.6-9.1q-6.5,2 -1.4,11.6q2.9,5.3 10.7-.3q3.5-2.5 .9-9.8q-.7,4.9 -.6,13.6" fill="none" stroke="#cc6633" stroke-width="2.2"></path><path d="M-294,182q1.1-1.9 -1.2,7.3q-3.5,13.8 -7.7,34.8" fill="none" stroke="#cc6633" stroke-width="2.4"></path><path d="M-295,183q1.2-1.4 20.7-4.3q40.8-7.3 74-13.8q-1.5,6.6 -7.1,15.4q-4.5,7.2 -4.7,31.4q.6,1.5 1.4,2.7q-3.7,.6 -9.2-.3q-6.5-1.1 -66.4,6.5q-3.2,.7 -5.8,1.2q-.4,.1 2.1,.2" fill="none" stroke="#cc6633" stroke-width="2"></path><path d="M-266,129q0-1.6 -.2-2.9q-.2-1.4 -3,14.4q-2.4,13.5 -1.4,13q4.3-5.9 6.8-11.7q4.7-10.6 14.5-2q4.3,3.8 -8.7,11.4q-6.3,3.7 -12.8,.6" fill="none" stroke="#cc6633" stroke-width="2.1"></path><path d="M-153,177q.5-.7 1.1-1.3q-2,11.6 -9.1,31.3" fill="none" stroke="#cc6633" stroke-width="2.1"></path><path d="M-152,171q47.5-4.2 86.3-7.7q-1.4,1.5 -4.2,3.5q-6.5,4.6 -6.1,42.5q.3,1.2 .6,2.2q.5,1.5 -30.3,2.9q-6.4,.3 -32-3.2" fill="none" stroke="#cc6633" stroke-width="2"></path><path d="M-129,136q3.3-18.3 -8.9-10q-4.6,3 3.9,19.6q4,7.8 -4.3,6.6q-1.2-.1 -4.7-4.2" fill="none" stroke="#cc6633" stroke-width="1.9"></path><path d="M-126,140q1.6-1.8 1.7,1.8q.1,13.4 6.7,7.7q3.3-2.8 1.6-12.9q-.6,4 -1,11.4" fill="none" stroke="#cc6633" stroke-width="1.8"></path><path d="M-113,143q2.1-2.5 2.3,1.5q-.2,2.3 -.4,4.1q3-3 7-9.3q4.4-6.9 5.3,3.2q-.9,2.2 -2,3.9q4.9-3.5 13-10.9q5.4-4.9 5.1,5.3q-.1,2.3 -6.3,9.2" fill="none" stroke="#cc6633" stroke-width="2"></path><path d="M-420,-161q-14.3-.6 -38.7,9.9q-33.6,14.5 -49.2,39q-30.8,48.2 -41.7,74.1q-14.2,33.7 12.8,131.3q11.3,40.8 22.3,59.7q9.4,12.7 17.7,22.6q14.4,20 25.6,36.7q-.8-1.5 -2.4-4.3q-2.1-3.8 11.2-2.5q.3,.3 .4,.5" fill="none" stroke="#cc6633" stroke-width="1.8"></path><path d="M-467,198q-4.7-.5 -5.2,.7q-.3,.6 18.7,6.5q3.7,1.2 -14.2,8.5" fill="none" stroke="#cc6633" stroke-width="2.1"></path><path d="M-272,-145q.8-2.1 1.1-2.5q.9-.8 1.8,26.7q-2.1,67 -5.5,121.7q-1.8,28 -8.5,81.4q-2.7,31 -4.3,56.5q-3.3,14 -7,25.3q-1.2,7.5 -1.7,13.8q-4.4-6.6 -9.6-19.6q-3.3-3.9 -6.5-6.6q3.2,3.5 9.4,9.8q1,6 .4,11.5q9.6-4.1 22-15.1q.6-.6 -3.6,2.1" fill="none" stroke="#cc6633" stroke-width="1.8"></path><path d="M-411,206q-5.5-4 6-6q8.3-1.5 2.3,11.4q-3.9,8.3 -11.1,2.5q-5.8-4.6 12.8-3.4" fill="none" stroke="#cc6633" stroke-width="2.3"></path><path d="M-260,194q2.2-4.5 1-3.8q-17.8,10.3 -9.1,9.6q6.1-.5 11.1-.8" fill="none" stroke="#cc6633" stroke-width="2.1"></path><path d="M-254,193q-1.4-2.8 -1.5-2.6q-.7,8.5 -.5,15.6" fill="none" stroke="#cc6633" stroke-width="1.7"></path><path d="M-109,182q-3.2-6 -12.1,7.2q-6.7,9.7 2.2,15.3q2.7,1.7 8.7-7.7q4.4-6.9 -7.3-5.9q-.9,.1 -3.5,3.1" fill="none" stroke="#cc6633" stroke-width="2.2"></path><path d="M-430,21Q-428.7,9.8 -429.5,11.3Q-432.8,18.3 -433.9,48.3" fill="none" stroke="#cc6633" stroke-width="2.1"></path><path d="M-431,13Q-433.8,12.1 -426.7,10.2Q-400.2,5.7 -378.3,2.8Q-379.4,4.5 -382.1,6.9Q-384,8.6 -384.5,41.5Q-384.4,45 -384.2,48Q-398.3,52.4 -415.8,50.7Q-429.2,50.5 -440.1,50.7Q-437.6,50.4 -433,50" fill="none" stroke="#cc6633" stroke-width="2.3"></path><path d="M-411,-23q-10-2.9 -8.6,8.5q.6,5.1 9-1.9q1.6-4.8 1.8-9.4q-.5,4.5 -1.2,12.8" fill="none" stroke="#cc6633" stroke-width="2"></path><path d="M-341,7Q-341.2,4.9 -341.9,9.8Q-344.2,26.4 -346,40" fill="none" stroke="#cc6633" stroke-width="2.6"></path><path d="M-338,6Q-339,3.4 -321.6,.6Q-304.5,-2.9 -290.5,-6.1Q-292,-5.2 -295,-3.9Q-296.9,7.3 -294.6,18.8Q-294.4,29.4 -295,38.1Q-295.1,39 -344.1,44.2Q-345.1,44.3 -339,43" fill="none" stroke="#cc6633" stroke-width="1.9"></path><path d="M-323,-38q.3-2.3 .2-2q-2.4,13.5 -3.6,24.7q3.5-4.1 8.1-12.6q5.1-9.1 7.1-.6q1.7,7.1 -15,9.3q-1.5-.8 -2.6-1.8" fill="none" stroke="#cc6633" stroke-width="2.2"></path><path d="M-221,5Q-223.6,2.6 -226.3,7.3Q-229,12 -233.7,35.4" fill="none" stroke="#cc6633" stroke-width="2.9"></path><path d="M-222,5q-2.5-4.7 .5-5.9q32.4-7.2 59.4-11.1q-1.4,2.5 -4.8,5.9q-9.6,9.4 -5.8,42.1q.5,1.8 1.1,3.2q-6.3,.8 -15.3-1.4q-23.3-1.5 -42.6-.9" fill="none" stroke="#cc6633" stroke-width="1.9"></path><path d="M-203,-37q-5.1-12.6 -10.8,3q3.9,6.6 9.8,11.6q-3.8,.8 -10,.4" fill="none" stroke="#cc6633" stroke-width="1.8"></path><path d="M-198,-33q1.3-1.4 1.1-1q-3.6,8.3 1.5,11q3.2,1.8 8.2-13q.1-.5 .5,9.3q1.8-1 4-3.3q1.3,.1 2.6,.7q5.1-1.3 9.3-3.9q0,2.4 -1.2,6.2" fill="none" stroke="#cc6633" stroke-width="1.8"></path><path d="M-415,27q1.3-14.2 7.3-6.9q2.2,2.8 -8.8,17.8q-2.6,3.6 -3.7,1.2q-2.8-6.1 15.9-3.5q1.6,.2 7.7,2.3" fill="none" stroke="#cc6633" stroke-width="2.1"></path><path d="M-322,18q2.9-5.4 1.5-4.4q-16,11.5 -10.9,9.3q6.2-.8 11.4-.9" fill="none" stroke="#cc6633" stroke-width="2"></path><path d="M-317,14q-1.8-3.7 -5,11.3q-.6,4.8 -1,8.7" fill="none" stroke="#cc6633" stroke-width="2.4"></path><path d="M-199,6Q-199.9,.9 -213.2,14.6Q-222.9,24.5 -213.5,30.2Q-207.6,33.8 -202.1,19.1Q-200.3,14.3 -211,17" fill="none" stroke="#cc6633" stroke-width="2.7"></path><path d="M57,-48q12.4-6.1 14.1-6.6q2.5-.8 -16.2,8.6q-32,16 -131.3,50.5q-6.9,2.3 -32.2,16.6q3.8-1.7 10.6-5.1" fill="none" stroke="#cc6633" stroke-width="2.2"></path><path d="M-96,5Q-107,15.5 -107.3,16Q-110.4,20.5 -88.5,15.3" fill="none" stroke="#cc6633" stroke-width="1.8"></path><path d="M-101,8Q-102.7,16 -99.1,14.9Q-92.8,13 -96.3,5.7Q-97.1,4.2 -102,10.3Q-105.5,14.6 -103.7,16.1Q-102.5,14.1 -102,11" fill="none" stroke="#cc6633" stroke-width="2"></path><path d="M105,-74q4-16.6 2.8-14.1q-4.6,18.5 -6.8,34.1" fill="none" stroke="#cc6633" stroke-width="2"></path><path d="M102,-62q-2.3-1.9 3.8-3.7q17.9-5.3 13.3-21.1q-.5-2 -4.1,4.3q-11.2,19.6 -4.8,26.5q3.7-3.3 6.6-9.2q3.3,2.7 6.5,8.2q2,3.4 6.1-10.8q1.1-4 -.6-3.7q-1.9,.2 -3.3,9.5q-1.3,8.1 7.1,.2q5.2-4.7 5-12.2q-.3,1.8 -.7,5.2q-1.7,14.2 -8.4,7.8q1.7-1.2 4.5-2" fill="none" stroke="#cc6633" stroke-width="1.7"></path><path d="M139,-65q24-9.1 15.6-9.7q-5.5-.4 -8.2,10.9q-1.2,5 7.9,2.6" fill="none" stroke="#cc6633" stroke-width="2"></path><path d="M195,-68q-5-1.5 -8.6,2.9q1.2,.4 3.1,.4q2.7,.1 8.6-9.5q1.1,1.9 1.8,5.2q1.4-2.2 2.8-6.4q-.2-.8 -.6-1.5q3.1,3 8.2,9.2q1.5,1.7 10.6-9.3q3.8-4.5 1.9-6.4q-2-2 -3.3,9q.6,3.5 1.5,6.4" fill="none" stroke="#cc6633" stroke-width="2"></path><path d="M267,-83q4.9-7.2 2.8-8.2q-4.6-2.3 -10,15.7q-3.5,11.7 12.4,3.7q9.7-4.9 5-9.3q-2.8-2.5 -5.4,5q4.1-.4 9.9-3q2.1-.9 -3.6,34.3q-.4,1.3 -.7,2.4q-.2,.5 1.7-14.1q4.2-32.7 14.6-30q1.7,.4 -6,10q-.6,.9 -4.7,2.5" fill="none" stroke="#cc6633" stroke-width="2.1"></path><path d="M299,-82q-3.1,8.1 2.5,6.8q2.3-4.6 2.9-9.6q-1.4,7.3 -3.8,20.8q-2.9,16.2 -13.6,9.7q.3-3.4 2-6.7" fill="none" stroke="#cc6633" stroke-width="1.9"></path><path d="M340,-85q1.5-1.9 -.1-1.7q-2.3,1.2 -4.2,2.4q4.3-.5 11.6-2.6q5.3-1.5 -5.3,41.7q-6.5,26.3 2.9,16.3q8.2-8.7 8.9-30.9q-2.1-3.1 -4.8-5.2" fill="none" stroke="#cc6633" stroke-width="1.9"></path><path d="M394,-92q1.2-2.2 .9-1.4q-2.3,6.6 -.8,4.9q10-11.7 13-7q-.8,3.7 -2.6,6.8q4.2-3.1 11-9.7q1.3,3.2 1.5,8.4" fill="none" stroke="#cc6633" stroke-width="2"></path><path d="M427,-93q3.9-5.4 1.5-5.7q-3.6-.4 -6.1,8.5q-1.6,5.6 8.1-3.4q1.5-2.5 2.4-4.7q-.5,1.9 -1.6,5.4q-.2,.7 1.7,2.9" fill="none" stroke="#cc6633" stroke-width="1.9"></path><path d="M440,-95q2.5-2.3 2.3-1.5q-.8,3.6 -1.3,6.5" fill="none" stroke="#cc6633" stroke-width="1.6"></path><path d="M445,-108q-8.2-3.5 -6.7,.3q1.2,3 11.4,.3" fill="none" stroke="#cc6633" stroke-width="1.6"></path><path d="M450,-100q-1.9,6.6 -1.7,6.4q10.8-15.4 11.8-4.2q-1.8,3.9 -4.1,6.8" fill="none" stroke="#cc6633" stroke-width="2.3"></path><path d="M473,-94q.2,.4 1,2" fill="none" stroke="#cc6633" stroke-width="1.4"></path></svg>