<svg viewBox="-331.85 -265.15 634.95 582.95" width="634.95" height="582.95" version="1.1" baseProfile="full" xmlns="http://www.w3.org/2000/svg" class="js-draw--autoresize"><style id="js-draw-style-sheet">path{stroke-linecap:round;stroke-linejoin:round;}text{white-space:pre;}</style><path d="M303.1,317.8l0-582.95l-634.95,0l0,582.95l634.95,0" fill="#ffffff" class="js-draw-image-background"></path><path d="M-319,-197q16.6,93.1 12,161.9q-2.8,44 -5,80.1" fill="none" stroke="#cc6633" stroke-width="1.6"></path><path d="M-331,-201q26.1-3.3 77.6-5.1q115-4.2 147.5-3.9q124.4,.9 195.2-4.4q57.8-4.4 159.1,2.6q-2.4,.1 -6.9,.1q-.5,0 -4.4,40.1q-6.9,70.9 15.3,164.6q3.9,27.5 6.1,50.1q-2.5-1.7 -5.8-5.6q-6.5-7.6 -71.2-2.6q-99.5,.7 -181-1.5q-26.6-.7 -113.1,6.1q-29.1,2.8 -52.8,5.3q-10.8-1 -19.6-2.8q-1.4-.3 -87.9-1.4q-40.7-.6 -55.7,1.8q.6,.3 1.6,.6" fill="none" stroke="#cc6633" stroke-width="1.7"></path><path d="M-311,138q1.4-8.6 1.4-11.3q1,25.2 2.5,71.9q5.1,32.3 10.8,58.5q2.4,30.2 2.7,55" fill="none" stroke="#cc6633" stroke-width="2"></path><path d="M-297,99q-17.7,7.1 -18.3,12.7q-1.2,10.6 77.1,7.2q65.3-2.8 309.6,1.6q124,2.3 199.1-6.7q3,.2 5.4,.6q-.7,.4 -2.1,.7q-.3,.1 4.6,28.6q10.1,42.6 19.6,77.2q.3,13.7 -.8,25.1q1.3,15.4 3.5,28q1.5,8.4 -1.7,8.2q-14.4-.6 -76.6,7.5q-131.5,9 -239.4,13.3q-30.6,2.1 -55.6,4.3q-112.6,9.6 -131,4.5q-29.6-2.8 -54.2-2.8q-38.5-.2 -38.6-.2q-2,.2 -3.6,.2" fill="none" stroke="#cc6633" stroke-width="1.8"></path><path d="M-209,-243q5.9-21.2 -11.7-19.7q-14.7,1.3 .1,20.6q7.6,6.8 14.5,11.9q5.5,4.2 -14.7,1.7q-4-1.6 -7.2-3.5" fill="none" stroke="#cc6633" stroke-width="1.9"></path><path d="M-188,-240q-4.5-2.8 -11.1,1.5q-10.4,6.8 6.4,8.3" fill="none" stroke="#cc6633" stroke-width="1.8"></path><path d="M-172,-234q-1.9-4 -7.6-1.8q-7.3,2.8 -.4,7.3q2.4,1.5 9.2-7.4q0-.7 -.2-1.3q.3,2.2 1,6.2" fill="none" stroke="#cc6633" stroke-width="2.1"></path><path d="M-165,-232q.4-.6 .8-1.1q.6,1.1 .9,2.7q3.6-2.4 7.5-7.7q2.9-3.9 5.8,0q-.1,3.2 -1,6.1" fill="none" stroke="#cc6633" stroke-width="1.7"></path><path d="M-126,-242q-.1-10.1 -5.7-11q-3.1-.5 -.7,31.4q.5,7.3 -4.9,6.3q-1.1-.2 -2.7-4.7" fill="none" stroke="#cc6633" stroke-width="2"></path><path d="M-142,-237q9.4-1.1 17-2" fill="none" stroke="#cc6633" stroke-width="1.8"></path><path d="M-107,-247q-.6-6.4 -4.6-1.3q-5.4,6.9 4.4,20" fill="none" stroke="#cc6633" stroke-width="2.1"></path><path d="M-95,-241q-.6-6.7 5.7,0q1.7,1.8 .3,12" fill="none" stroke="#cc6633" stroke-width="2.3"></path><path d="M-169,92q-1.4-9.8 -1.9-8.6q-2.7,7.4 4.2,17.7q.3-3.7 -.5-10q-1.6-12.9 8.2-7.9q3.7,1.8 1.4,14q1.1-2.9 2.8-8.2q3.6-11.7 9.2-.9q.3,5.9 -.4,10.9" fill="none" stroke="#cc6633" stroke-width="2.3"></path><path d="M-131,93q-1-6.1 -5.6-4.5q-6,2.1 -.4,12.5q2.8,5.2 7.7-4.4q.5-4.6 .3-8.5q1.3,3 3,8.9" fill="none" stroke="#cc6633" stroke-width="2.1"></path><path d="M-121,93q1-4.8 1.1-3.7q1,8.3 -.1,6.7" fill="none" stroke="#cc6633" stroke-width="2.2"></path><path d="M-121,87q-.9-6.6 0-6" fill="none" stroke="#cc6633" stroke-width="2"></path><path d="M-116,88q2.2,7.5 3,6.6q7.9-9.8 8.8-10q1.1,4.5 .2,10.4" fill="none" stroke="#cc6633" stroke-width="2.1"></path><path d="M-78,82q-5.7-4.3 -8.2,1.7q-2.3,5.4 6.8,13.7" fill="none" stroke="#cc6633" stroke-width="2.3"></path><path d="M-69,83q-.5-4.1 .2-5q1.1-1.5 3.5,6.9q.6,2.2 -.7,11.1" fill="none" stroke="#cc6633" stroke-width="2.1"></path><path d="M-261,-129q1.1-3.9 .3-2.5q-2.8,20.2 -2.3,37.5" fill="none" stroke="#cc6633" stroke-width="2.2"></path><path d="M-260,-130q1.8-3.4 13.6-3.4q56.9-.2 58.9-3.5q-2.6,.1 -6.6,1.6q-3.9,21.2 .5,43.7q-.8-.9 -2-2.7q-1-1.7 -41.5-2.8q-18.9-.5 -22.7,.6q-.7,.2 3.8,.5" fill="none" stroke="#cc6633" stroke-width="2.1"></path><path d="M-109,-140q-.5-1.7 -.6-2.3q-1.5-4.2 -1.3,34.4q.1,13.1 1.7,18.3" fill="none" stroke="#cc6633" stroke-width="2.3"></path><path d="M-109,-140q-1.9-2.4 5.4-3q62.3-.3 113.3,1.2q-2.2,.3 -6.3,.6q-2.9,.2 .1,47.1q.2,3.9 -1.9,4.2q-8.3,1.2 -38.5,1.3q-24.7,.6 -44.8,1.3q-5.4-.1 -9.7-.2q.4-.7 1.4-1.5" fill="none" stroke="#cc6633" stroke-width="2.2"></path><path d="M-110,-92q-1.7-2.7 -1.7-1.3q.1,8.4 12.5,8.3q12.8-.5 23.2-1" fill="none" stroke="#cc6633" stroke-width="1.8"></path><path d="M-253,-115q1.4-5.9 1.4-5.5q.2,6.9 .6,12.5" fill="none" stroke="#cc6633" stroke-width="2.2"></path><path d="M-239,-113q-4.5,3.5 -3.1,10.3q1.1,5.7 6.9-8.8q3.3-8.2 4.6-5q1.4,9.2 1.7,16.9q.2,8.3 4.3,2.7q8.5-11.7 -7.3-14.7" fill="none" stroke="#cc6633" stroke-width="2.2"></path><path d="M-77,-114q4.7-6 2.9-7.1q-4.9-3 -2.1,7.3q4.6,7.2 9.3,12.6q1.3,1.6 -9.1,.2" fill="none" stroke="#cc6633" stroke-width="1.9"></path><path d="M-73,-118q14.8-6.9 24.2-3.4q-1.4,1.2 -4.2,2.4" fill="none" stroke="#cc6633" stroke-width="2.2"></path><path d="M-242,-95q-7.7,28.7 -11.1,80.4q-4.3,65 10.2,107.2q1.7,8.7 2.6,16q8.1,20.2 17,36.1q2.1,11.5 2.3,21.3" fill="none" stroke="#cc6633" stroke-width="2.1"></path><path d="M-232,156q-1.5-1.9 -1.3-1.7q19.2,19.3 15.8,13.3q2.3-11.7 7.5-21.6" fill="none" stroke="#cc6633" stroke-width="2.2"></path><path d="M-238,190q.4-1.4 .5-2.4q1.5,18.2 1.3,51.7" fill="none" stroke="#cc6633" stroke-width="2.5"></path><path d="M-239,188q-2.6-.5 -2.5-.5q32.7-4.1 60.3-4q5.9-1.4 10.8-3.1q-1.1,1.6 -3.4,4q.7,2.7 2.4,5.2q1.1,18.4 -2.2,34.7q.7,1.8 1.6,3.2q-1.5-.1 -3.9-1q-24.3,.8 -44.7,5.4q-8.9,.6 -16.2,.6q2-.3 5.8-.5" fill="none" stroke="#cc6633" stroke-width="2.5"></path><path d="M-200,262q-7.8-6.9 -16.1-1q-8.8,6.2 4.4,14.4q6.1,3.8 10.4-10.8q-.8-5.1 -2.5-9.4q-.2,6 .8,16.8" fill="none" stroke="#cc6633" stroke-width="2.5"></path><path d="M-220,207q-1.5-4.7 -2.4-2.9q-1.8,4.1 2.5,16" fill="none" stroke="#cc6633" stroke-width="2.2"></path><path d="M-210,212q-.2-3.3 -1.2-3q-4.1,1.2 1,9.8q3.8,6.4 7.1-6.3q.3-4.3 .3-7.8q0-4.3 6.4,12.3q5.8,14.8 7.1,7.8q1.6-8.6 -5.9-19.8q-2.4,0 -4.8,1" fill="none" stroke="#cc6633" stroke-width="2"></path><path d="M-204,267q4.1-8.1 4.3-4.3q.9,17.3 6.7,16.3" fill="none" stroke="#cc6633" stroke-width="2.6"></path><path d="M-105,191q-.2-.9 -.5-1.7q.1,7.3 1.5,20.7" fill="none" stroke="#cc6633" stroke-width="2.2"></path><path d="M-103,192q2.3-8.5 13.4-12.2q31.6-5 58-7.1q-.8,1.4 -2.7,3.3q-2.4,19.3 .5,37.1q.7,4.3 -55.2,5.7q-6.5-.5 -11.7-1.2q.9-.8 2.7-1.6" fill="none" stroke="#cc6633" stroke-width="2.4"></path><path d="M-63,195q-1.8-6.2 -7.1-2.4q-2.9,2.1 10.7,16.8q2.1,2.3 -3.8,2.2q-2.5-.1 -11.8-3.6" fill="none" stroke="#cc6633" stroke-width="2.5"></path><path d="M-70,188q1.2-2.3 21.8-3q3.9-.9 7.2-1.9q-1,.8 -3,1.9" fill="none" stroke="#cc6633" stroke-width="2.8"></path><path d="M-77,254q-.8-14.6 -1.3-16.3q-1.5-5.2 -.6,21.3q.7,20.2 2.6,14q1-6.9 1.4-12.5q1.1-15.1 13.3-7.8q6.9,4.1 -4.8,16.8q-4.9,5.4 -12.4,1.6" fill="none" stroke="#cc6633" stroke-width="2.5"></path><path d="M54,177q-1.6-1.6 -3.4,.5q-4,4.6 1.9,36q2.2,4.8 4.5,8.5" fill="none" stroke="#cc6633" stroke-width="2"></path><path d="M54,178q-2.3-5.2 3.2-6.4q54.7-3.5 99.9-2.9q7.2-1.7 13.1-3.7q-.3,1.9 -1.6,4.6q-.3,.6 -.1,44.5q.1,7.7 -.2,7.4q-17.6-.7 -34,4.2q-17.6,5.2 -76.8,1.1q-1.8-1.1 -3.1-2.5q-.3-.3 1.6-1.3" fill="none" stroke="#cc6633" stroke-width="2.3"></path><path d="M67,261q3.7-13 -2.7-13.3q-7.4-.3 .7,14.6q3.7,4.5 7.1,7.9q-5.3-.4 -14.1-3.2" fill="none" stroke="#cc6633" stroke-width="2.4"></path><path d="M76,262q1.3-2.7 2.1,1.5q1.5,7.7 4.8,5.9q3-1.5 3-13.1q.5,3.4 1.1,9.7" fill="none" stroke="#cc6633" stroke-width="2.1"></path><path d="M93,259q2.2,7.6 2.8,6.4q8.4-17.7 10.7-8.5q2,8.2 -2.1,4.6q-1.5-1.3 9.3-8.9q4.3-3 5.5,4q-1.3,4.7 -3.2,8.4" fill="none" stroke="#cc6633" stroke-width="2.5"></path><path d="M70,197q-1-4.9 -5,1.3q-5.3,8.1 5.9,14.4q5.3,3.1 3.8-11q-.5-4.5 -2.7-3.1q0,7.8 3,15.4" fill="none" stroke="#cc6633" stroke-width="2.1"></path><path d="M87,201q-.6-7.3 -1-4.9q.6,9.8 2,17.9" fill="none" stroke="#cc6633" stroke-width="2.6"></path><path d="M87,205q4.4-1.7 8-3" fill="none" stroke="#cc6633" stroke-width="1.5"></path><path d="M105,192q-.1-6.3 -1.1-4.8q-1.8,2.4 1.8,26.1q2.9-4.6 5.8-13.4q2.4-7 10.3-4.5q5.2,1.6 -.6,11.5q-4.9,8.4 -15.1,.8" fill="none" stroke="#cc6633" stroke-width="2.7"></path></svg>